<svg xmlns="http://www.w3.org/2000/svg" xmlns:svg="http://www.w3.org/2000/svg" id="svg1" width="60" height="60" x="0" y="0" _SVGFile__filename="oldscale/actions/dissociatecell.svg" version="1.0"><path style="font-size:12;fill:none;fill-rule:evenodd;stroke:#fff;stroke-width:8.125;stroke-linecap:round;stroke-linejoin:round;stroke-opacity:1;stroke-miterlimit:4;stroke-dasharray:none" id="path1103" d="M 7.4516040,8.0640535 C 5.9209970,8.0640535 4.6887760,9.2962756 4.6887760,10.826886 L 4.6887760,49.173111 C 4.6887760,50.703721 5.9209970,51.935947 7.4516040,51.935947 L 52.548400,51.935947 C 54.079010,51.935947 55.311230,50.703721 55.311230,49.173111 L 55.311230,10.826886 C 55.311230,9.2962756 54.079010,8.0640535 52.548400,8.0640535 L 7.4516040,8.0640535 z"/><g id="g1092" transform="matrix(1.014913,0.000000,0.000000,1.014913,-0.450843,-1.322069)"><path style="font-size:12;fill:#fff;fill-opacity:1;fill-rule:evenodd;stroke-width:3.125" id="rect831" d="M 7.7863260,9.2482040 C 6.2782100,9.2482040 5.0640950,10.462320 5.0640950,11.970440 L 5.0640950,49.753210 C 5.0640950,51.261330 6.2782100,52.475450 7.7863260,52.475450 L 52.220480,52.475450 C 53.728600,52.475450 54.942710,51.261330 54.942710,49.753210 L 54.942710,11.970440 C 54.942710,10.462320 53.728600,9.2482040 52.220480,9.2482040 L 7.7863260,9.2482040 z"/><path style="font-size:12;fill:none;fill-opacity:.75;fill-rule:evenodd;stroke:#000;stroke-width:2.4632666;stroke-linecap:round;stroke-linejoin:round;stroke-dasharray:2.4632666 2.4632666;stroke-dashoffset:0;stroke-opacity:1" id="path832" d="M 5.3441190,23.793690 L 54.713600,23.793690"/><path style="font-size:12;fill:none;fill-opacity:.75;fill-rule:evenodd;stroke:#000;stroke-width:2.4632666;stroke-linecap:round;stroke-linejoin:round;stroke-dasharray:2.4632666 2.4632666;stroke-dashoffset:0;stroke-opacity:1" id="path833" d="M 30.003400,9.8670710 L 30.003400,52.111060"/><path style="font-size:12;fill:none;fill-opacity:.75;fill-rule:evenodd;stroke:#000;stroke-width:2.4632666;stroke-linecap:round;stroke-linejoin:round;stroke-dasharray:2.4632666 2.4632666;stroke-dashoffset:0;stroke-opacity:1" id="path834" d="M 5.3441190,37.960350 L 54.713600,37.960350"/><path style="font-size:12;fill:none;fill-rule:evenodd;stroke:#000;stroke-width:3.0790832;stroke-linecap:round;stroke-linejoin:round;stroke-opacity:1" id="rect837" d="M 7.7863270,9.2482040 C 6.2782100,9.2482040 5.0640950,10.462320 5.0640950,11.970440 L 5.0640950,49.753210 C 5.0640950,51.261330 6.2782100,52.475450 7.7863270,52.475450 L 52.220480,52.475450 C 53.728600,52.475450 54.942710,51.261330 54.942710,49.753210 L 54.942710,11.970440 C 54.942710,10.462320 53.728600,9.2482040 52.220480,9.2482040 L 7.7863270,9.2482040 z"/></g><metadata id="metadata9"><RDF id="RDF10"><Work id="Work11"><title id="title12">Part of the Flat Icon Collection (Thu Aug 26 14:38:01 2004)</title><description id="description14"/><subject id="subject15"><Bag id="Bag16"><li id="li17"/></Bag></subject><publisher id="publisher18"><Agent id="Agent19"><title id="title20"/></Agent></publisher><creator id="creator21"><Agent id="Agent22"><title id="title23">Danny Allen</title></Agent></creator><rights id="rights25"><Agent id="Agent26"><title id="title27">Danny Allen</title></Agent></rights><date id="date29"/><format id="format30">image/svg+xml</format><type id="type32" resource="http://purl.org/dc/dcmitype/StillImage"/><license id="license33" resource="http://creativecommons.org/licenses/LGPL/2.1/"><date id="date34"/></license><language id="language35">en</language></Work></RDF></metadata></svg>