<svg xmlns="http://www.w3.org/2000/svg" xmlns:svg="http://www.w3.org/2000/svg" xmlns:xlink="http://www.w3.org/1999/xlink" id="svg1" width="60" height="60" x="0" y="0" _SVGFile__filename="oldscale/actions/14_zoom.svg" version="1.0"><defs id="defs3"><linearGradient id="linearGradient1160"><stop id="stop1161" offset="0" style="stop-color:#000;stop-opacity:1"/><stop id="stop1162" offset="1" style="stop-color:#fff;stop-opacity:1"/></linearGradient><linearGradient id="linearGradient1163" xlink:href="#linearGradient1160"/></defs><path id="path1103" d="M 24.676189,4.6886202 C 13.652668,4.6886212 4.7331688,13.640271 4.7331668,24.662902 C 4.7331668,35.685533 13.652669,44.637182 24.676189,44.637183 C 29.202893,44.637183 33.360192,43.052399 36.710772,40.511040 C 45.947237,53.967922 52.413220,56.807098 54.621982,54.671212 C 56.886739,52.461498 53.402924,46.157636 40.711880,36.478674 C 43.164375,33.162233 44.650471,29.101137 44.650470,24.662902 C 44.650470,13.640270 35.699721,4.6886211 24.676189,4.6886202 z" style="font-size:12;fill:none;fill-opacity:1;fill-rule:evenodd;stroke:#fff;stroke-width:8.125;stroke-linecap:round;stroke-linejoin:round;stroke-miterlimit:4;stroke-opacity:1"/><g id="g1734"><path id="path1187" d="M 31.913680,32.618870 C 44.251640,53.717920 52.965610,58.090200 55.644410,55.499570 C 58.416270,52.794860 53.750530,44.426660 33.534360,30.966260 L 31.913680,32.618870 z" transform="matrix(0.968978,0.000000,0.000000,0.968899,0.669627,0.892647)" style="font-size:12;stroke-opacity:1;stroke-linejoin:round;stroke-linecap:round;stroke-width:3.2251773;stroke:#000;fill-rule:evenodd;fill-opacity:1;fill:#fff"/><path id="path1174" d="M 45.373020,24.517720 C 45.373020,35.891020 36.142510,45.121520 24.769210,45.121520 C 13.395920,45.121520 4.1654130,35.891020 4.1654130,24.517720 C 4.1654130,13.144420 13.395920,3.9139190 24.769210,3.9139180 C 36.142510,3.9139190 45.373020,13.144420 45.373020,24.517720 z" transform="matrix(0.968978,0.000000,0.000000,0.968899,0.669627,0.892647)" style="fill:#fff;fill-opacity:1;fill-rule:evenodd;stroke:#000;stroke-width:3.2251773;stroke-linecap:round;stroke-linejoin:round;stroke-opacity:1;font-size:12"/><path id="path1175" d="M 40.386911,24.647841 C 40.386911,33.322617 33.345939,40.363015 24.670456,40.363015 C 15.994964,40.363015 8.9539950,33.322617 8.9539950,24.647841 C 8.9539950,15.973066 15.994964,8.9326659 24.670456,8.9326659 C 33.345939,8.9326659 40.386911,15.973066 40.386911,24.647841 z" style="stroke-opacity:1;stroke-linejoin:round;stroke-linecap:round;stroke-width:2.4999986;stroke:#000;fill-rule:evenodd;fill-opacity:1;fill:#fff;font-size:12"/><text id="text3370" x="13.721" y="32.761" xml:space="preserve" style="font-style:normal;font-weight:400;font-size:25px;line-height:150%;font-family:sans-serif;letter-spacing:0;word-spacing:0;fill:#000;fill-opacity:1;stroke:none;stroke-width:1px;stroke-linecap:butt;stroke-linejoin:miter;stroke-opacity:1"><tspan id="tspan3372" x="13.721" y="32.761">#</tspan></text><text id="text3378" x="-.441" y="57.702" transform="scale(0.98488513,1.0153468)" xml:space="preserve" style="font-style:normal;font-weight:400;font-size:19.44279099px;line-height:150%;font-family:sans-serif;letter-spacing:0;word-spacing:0;fill:#000;fill-opacity:1;stroke:none;stroke-width:1px;stroke-linecap:butt;stroke-linejoin:miter;stroke-opacity:1"><tspan id="tspan3380" x="-.441" y="57.702">N</tspan></text></g><metadata id="metadata11"><RDF id="RDF12"><Work id="Work13"><title id="title14">Part of the Flat Icon Collection (Thu Aug 26 14:38:01 2004)</title><description id="description16"/><subject id="subject17"><Bag id="Bag18"><li id="li19"/></Bag></subject><publisher id="publisher20"><Agent id="Agent21"><title id="title22"/></Agent></publisher><creator id="creator23"><Agent id="Agent24"><title id="title25">Danny Allen</title></Agent></creator><rights id="rights27"><Agent id="Agent28"><title id="title29">Danny Allen</title></Agent></rights><date id="date31"/><format id="format32">image/svg+xml</format><type id="type34" resource="http://purl.org/dc/dcmitype/StillImage"/><license id="license35" resource="http://creativecommons.org/licenses/LGPL/2.1/"><date id="date36"/></license><language id="language37">en</language></Work></RDF></metadata></svg>