<svg xmlns="http://www.w3.org/2000/svg" xmlns:svg="http://www.w3.org/2000/svg" id="svg1" width="60" height="60" x="0" y="0" _SVGFile__filename="oldscale/actions/bookmark_add.svg" version="1.0"><metadata id="metadata8"><RDF id="RDF9"><Work id="Work10"><title id="title11">Part of the Flat Icon Collection (Thu Aug 26 14:38:01 2004)</title><description id="description13"/><subject id="subject14"><Bag id="Bag15"><li id="li16"/></Bag></subject><publisher id="publisher17"><Agent id="Agent18"><title id="title19"/></Agent></publisher><creator id="creator20"><Agent id="Agent21"><title id="title22">Danny Allen</title></Agent></creator><rights id="rights24"><Agent id="Agent25"><title id="title26">Danny Allen</title></Agent></rights><date id="date28"/><format id="format29">image/svg+xml</format><type id="type31" resource="http://purl.org/dc/dcmitype/StillImage"/><license id="license32" resource="http://creativecommons.org/licenses/LGPL/2.1/"><date id="date33"/></license><language id="language34">en</language></Work></RDF></metadata><path id="rect812" d="m 6.682599,4.687911 c -1.105394,0 -1.995296,0.896237 -1.995296,2.009501 V 53.30259 c 0,1.11326 0.889902,2.0095 1.995296,2.0095 h 24.871459 l 0.841108,-16.479723 21.789489,0.04832 c 1.105397,0.0025 1.221559,3.219482 1.173158,2.107279 C 54.731448,30.256355 55.3127,17.441751 55.3127,6.697412 c 0,-1.113264 -0.8899,-2.009501 -1.9953,-2.009501 z" transform="matrix(0.654383,0,0,0.654383,1.620212,1.619814)" style="font-size:12px;fill:none;fill-opacity:1;fill-rule:evenodd;stroke:#888;stroke-width:4.77549267;stroke-linecap:round;stroke-linejoin:round;stroke-opacity:1"/><path style="font-size:12;fill:none;fill-opacity:.75;fill-rule:evenodd;stroke:#888;stroke-width:3.1249986;stroke-linecap:round;stroke-linejoin:round;stroke-miterlimit:4;stroke-opacity:1" id="path842" d="M 10.640746,11.518347 L 31.862658,11.518347"/><path style="font-size:12;fill:none;fill-opacity:.75;fill-rule:evenodd;stroke:#888;stroke-width:4.8358421;stroke-linecap:round;stroke-linejoin:round;stroke-miterlimit:4;stroke-opacity:1" id="path1214" d="M 13.270927,45.460370 L 29.331180,45.460370" transform="matrix(0.646216,0.000000,0.000000,0.646216,2.064861,1.607046)"/><path style="font-size:12px;fill:none;fill-opacity:.75;fill-rule:evenodd;stroke:#888;stroke-width:3.12499857;stroke-linecap:round;stroke-linejoin:round;stroke-miterlimit:4;stroke-opacity:1" id="path843" d="M 10.640746,20.803595 H 31.862658"/><path id="path938" d="m 22.819058,27.031055 c -0.333975,0 -0.614801,0.280827 -0.614801,0.614802 l -0.01983,26.61497 c 0,0.560883 0.450563,1.011448 1.011448,1.011448 h 23.659956 c 0.560883,0 1.011448,-0.450565 1.011448,-1.011448 l 7.372881,-18.096663 -7.499999,-0.658502 0.127118,-4.726297 c 0.01508,-0.560688 -0.450565,-1.011449 -1.011448,-1.011449 h -9.341022 v -2.122059 c 0,-0.333975 -0.280826,-0.614802 -0.614802,-0.614802 z" style="font-size:12px;fill:none;fill-opacity:1;fill-rule:evenodd;stroke:#888;stroke-width:3.12500262;stroke-linejoin:round;stroke-opacity:1"/><path id="rect922" d="m 30.92933,35.500701 c -0.56089,0 -1.174829,0.421328 -1.376553,0.944687 l -6.906676,17.918897 c -0.201722,0.523353 0.08742,0.944687 0.64831,0.944687 h 23.662867 c 0.560883,0 1.174825,-0.421334 1.376547,-0.944687 l 6.906676,-17.918897 c 0.201724,-0.523359 -0.08742,-0.944687 -0.648304,-0.944687 z" style="font-size:12px;fill:none;fill-opacity:1;fill-rule:evenodd;stroke:#888;stroke-width:3.12500358;stroke-linejoin:round;stroke-opacity:1"/></svg>