<svg xmlns="http://www.w3.org/2000/svg" xmlns:svg="http://www.w3.org/2000/svg" id="svg1" width="60" height="60" x="0" y="0" _SVGFile__filename="oldscale/actions/dissociatecell.svg" version="1.0"><path id="rect831" d="m 7.4516005,8.0640535 c -1.5306066,0 -2.7628277,1.2322221 -2.7628277,2.7628325 v 38.346225 c 0,1.53061 1.2322211,2.762836 2.7628277,2.762836 H 52.548401 c 1.530611,0 2.762827,-1.232226 2.762827,-2.762836 V 10.826886 c 0,-1.5306104 -1.232216,-2.7628325 -2.762827,-2.7628325 z" style="font-size:12px;fill:none;fill-opacity:1;fill-rule:evenodd;stroke-width:3.1716032"/><path id="path832" d="M 4.9729728,22.826456 H 55.078701" style="font-size:12px;fill:none;fill-opacity:.75;fill-rule:evenodd;stroke:#888;stroke-width:2.50000119;stroke-linecap:round;stroke-linejoin:round;stroke-dashoffset:0;stroke-opacity:1"/><path id="path833" d="M 29.999998,8.6921496 V 51.566123" style="font-size:12px;fill:none;fill-opacity:.75;fill-rule:evenodd;stroke:#888;stroke-width:2.50000119;stroke-linecap:round;stroke-linejoin:round;stroke-dashoffset:0;stroke-opacity:1"/><path id="path834" d="M 4.9729728,37.204384 H 55.078701" style="font-size:12px;fill:none;fill-opacity:.75;fill-rule:evenodd;stroke:#888;stroke-width:2.50000119;stroke-linecap:round;stroke-linejoin:round;stroke-dashoffset:0;stroke-opacity:1"/><path id="rect837" d="m 7.4516015,8.0640535 c -1.5306076,0 -2.7628287,1.2322221 -2.7628287,2.7628325 v 38.346225 c 0,1.53061 1.2322211,2.762836 2.7628287,2.762836 H 52.548401 c 1.530611,0 2.762827,-1.232226 2.762827,-2.762836 V 10.826886 c 0,-1.5306104 -1.232216,-2.7628325 -2.762827,-2.7628325 z" style="font-size:12px;fill:none;fill-rule:evenodd;stroke:#888;stroke-width:3.12500167;stroke-linecap:round;stroke-linejoin:round;stroke-opacity:1"/><metadata id="metadata9"><RDF id="RDF10"><Work id="Work11"><title id="title12">Part of the Flat Icon Collection (Thu Aug 26 14:38:01 2004)</title><description id="description14"/><subject id="subject15"><Bag id="Bag16"><li id="li17"/></Bag></subject><publisher id="publisher18"><Agent id="Agent19"><title id="title20"/></Agent></publisher><creator id="creator21"><Agent id="Agent22"><title id="title23">Danny Allen</title></Agent></creator><rights id="rights25"><Agent id="Agent26"><title id="title27">Danny Allen</title></Agent></rights><date id="date29"/><format id="format30">image/svg+xml</format><type id="type32" resource="http://purl.org/dc/dcmitype/StillImage"/><license id="license33" resource="http://creativecommons.org/licenses/LGPL/2.1/"><date id="date34"/></license><language id="language35">en</language></Work></RDF></metadata></svg>