<svg xmlns="http://www.w3.org/2000/svg" xmlns:svg="http://www.w3.org/2000/svg" xmlns:xlink="http://www.w3.org/1999/xlink" id="svg1" width="60" height="60" x="0" y="0" _SVGFile__filename="oldscale/apps/gabber.svg" version="1.0"><defs id="defs3"><linearGradient id="linearGradient900"><stop id="stop901" offset="0" style="stop-color:#000;stop-opacity:1"/><stop id="stop902" offset="1" style="stop-color:#fff;stop-opacity:1"/></linearGradient><linearGradient id="linearGradient903" xlink:href="#linearGradient900"/><linearGradient id="linearGradient904" xlink:href="#linearGradient900"/><linearGradient id="linearGradient905" xlink:href="#linearGradient900"/><linearGradient id="linearGradient906" xlink:href="#linearGradient900"/><linearGradient id="linearGradient907" xlink:href="#linearGradient900"/></defs><path id="path866" d="M 30.189960,3.5341542 C 22.599121,3.5900824 16.328927,9.4878583 14.953093,15.917137 C 13.966176,21.474891 15.142261,27.139730 16.605703,32.544180 C 17.639851,35.827766 18.708468,39.174289 20.590116,42.156734 L 38.807362,43.940880 C 42.099265,38.647968 43.468095,32.633523 44.968355,26.784078 C 46.257593,21.299333 46.500640,15.088870 42.834624,10.254101 C 40.099080,6.4410581 35.416305,3.4235470 30.189960,3.5341542 z" transform="matrix(0.943737,0.000000,0.000000,0.943737,1.490182,1.354823)" style="stroke-opacity:1;stroke-linejoin:round;stroke-linecap:round;stroke-width:3.3113053;stroke:#888;fill-rule:evenodd;fill-opacity:1;fill:none;font-size:12"/><path style="font-size:12px;fill:#888;fill-opacity:1;fill-rule:evenodd;stroke:#888;stroke-width:1.87500095;stroke-linejoin:round;stroke-opacity:1" id="path859" d="m 35.403688,50.533958 c 0,2.982842 -2.420846,5.403687 -5.403687,5.403687 -2.982841,0 -5.403687,-2.420845 -5.403687,-5.403687"/><path style="font-size:12px;fill:#888;fill-opacity:1;fill-rule:evenodd;stroke:#888;stroke-width:3.12500143;stroke-linejoin:round;stroke-opacity:1" id="rect858" d="m 22.590401,37.925348 c -2.614151,0 -4.718685,2.104534 -4.718685,4.718685 v 3.531483 c 0,2.614161 2.104534,4.718685 4.718685,4.718685 h 14.819191 c 2.614151,0 4.718685,-2.104524 4.718685,-4.718685 v -3.531483 c 0,-2.614151 -2.104534,-4.718685 -4.718685,-4.718685 z"/><metadata id="metadata20"><RDF id="RDF21"><Work id="Work22"><title id="title23">Part of the Flat Icon Collection (Thu Aug 26 14:31:40 2004)</title><description id="description25"/><subject id="subject26"><Bag id="Bag27"><li id="li28"/></Bag></subject><publisher id="publisher29"><Agent id="Agent30"><title id="title31"/></Agent></publisher><creator id="creator32"><Agent id="Agent33"><title id="title34">Danny Allen</title></Agent></creator><rights id="rights36"><Agent id="Agent37"><title id="title38">Danny Allen</title></Agent></rights><date id="date40"/><format id="format41">image/svg+xml</format><type id="type43" resource="http://purl.org/dc/dcmitype/StillImage"/><license id="license44" resource="http://creativecommons.org/licenses/LGPL/2.1/"><date id="date45"/></license><language id="language46">en</language></Work></RDF></metadata></svg>