<svg xmlns="http://www.w3.org/2000/svg" xmlns:svg="http://www.w3.org/2000/svg" xmlns:xlink="http://www.w3.org/1999/xlink" id="svg1" width="60" height="60" x="0" y="0" _SVGFile__filename="oldscale/filesystems/folder_home.svg" version="1.0"><defs id="defs3"><linearGradient id="linearGradient772"><stop id="stop773" offset="0" style="stop-color:#000;stop-opacity:1"/><stop id="stop774" offset="1" style="stop-color:#fff;stop-opacity:1"/></linearGradient><linearGradient id="linearGradient775" xlink:href="#linearGradient772"/></defs><path id="path1099" d="M 9.9047210,25.606877 L 10.005426,55.113362 L 50.085907,55.314770 L 50.085907,25.707582" style="font-size:12;fill:none;fill-opacity:1;fill-rule:evenodd;stroke:#fff;stroke-width:8.125;stroke-linecap:round;stroke-linejoin:round;stroke-miterlimit:4;stroke-opacity:1"/><path id="path1100" d="M 29.948265,4.6852305 L 9.9061940,24.727301 L 9.9061940,25.042097 L 50.095271,25.042097 L 50.095271,24.832229 L 46.667476,21.404444 L 46.667476,4.6852305 L 40.021763,4.6852305 L 40.021763,14.758731 L 29.948265,4.6852305 z" style="font-size:12;fill:none;fill-opacity:1;fill-rule:evenodd;stroke:#fff;stroke-width:8.125;stroke-linecap:round;stroke-linejoin:round;stroke-miterlimit:4;stroke-opacity:1"/><path style="font-size:12;stroke-linejoin:round;stroke-linecap:round;stroke-width:2.71787;fill-rule:evenodd;fill-opacity:1;fill:#fff" id="path661" d="M 12.236320,47.943630 L 48.045540,48.123570 L 48.045540,21.671530 L 30.050960,3.6769450 L 12.146350,21.581560 L 12.236320,47.943630 z" transform="matrix(1.119278,0.000000,0.000000,1.119278,-3.690412,1.451115)"/><path id="path832" d="M 37.643280,55.141470 L 37.643280,38.226550 L 21.808040,38.226550 L 21.808040,55.141470" transform="matrix(0.973457,0.000000,0.000000,0.973457,1.058664,0.761091)" style="font-size:12;stroke-opacity:1;stroke-linejoin:round;stroke-linecap:round;stroke-width:3.210207;stroke:#000;fill-rule:evenodd;fill-opacity:1;fill:#000"/><path id="path833" d="M 9.0872640,25.523250 L 9.1907150,55.834280 L 50.364060,56.041180 L 50.364060,25.626700" transform="matrix(0.973457,0.000000,0.000000,0.973457,1.058664,0.761091)" style="fill:none;fill-rule:evenodd;stroke:#000;stroke-width:3.210206;stroke-linecap:round;stroke-linejoin:round;stroke-opacity:1;font-size:12"/><path id="path666" d="M 29.677330,4.0311380 L 9.0887770,24.619690 L 9.0887770,24.943070 L 50.373680,24.943070 L 50.373680,24.727480 L 46.852420,21.206230 L 46.852420,4.0311380 L 40.025500,4.0311380 L 40.025500,14.379310 L 29.677330,4.0311380 z" transform="matrix(0.973457,0.000000,0.000000,0.973457,1.058664,0.761091)" style="fill:#000;fill-opacity:1;fill-rule:evenodd;stroke:#000;stroke-width:3.210207;stroke-linecap:round;stroke-linejoin:round;stroke-opacity:1;font-size:12"/><metadata id="metadata12"><RDF id="RDF13"><Work id="Work14"><title id="title15">Part of the Flat Icon Collection (Thu Aug 26 14:40:13 2004)</title><description id="description17"/><subject id="subject18"><Bag id="Bag19"><li id="li20"/></Bag></subject><publisher id="publisher21"><Agent id="Agent22"><title id="title23"/></Agent></publisher><creator id="creator24"><Agent id="Agent25"><title id="title26">Danny Allen</title></Agent></creator><rights id="rights28"><Agent id="Agent29"><title id="title30">Danny Allen</title></Agent></rights><date id="date32"/><format id="format33">image/svg+xml</format><type id="type35" resource="http://purl.org/dc/dcmitype/StillImage"/><license id="license36" resource="http://creativecommons.org/licenses/LGPL/2.1/"><date id="date37"/></license><language id="language38">en</language></Work></RDF></metadata><path style="fill:none;fill-opacity:1;fill-rule:evenodd;stroke-width:7.2591438;stroke-linecap:round;stroke-linejoin:round;font-size:12;stroke-miterlimit:4;stroke-dasharray:none" id="path1097" d="M 12.236320,47.943630 L 48.045540,48.123570 L 48.045540,21.671530 L 30.050960,3.6769450 L 12.146350,21.581560 L 12.236320,47.943630 z" transform="matrix(1.119278,0.000000,0.000000,1.119278,46.30958,1.451115)"/></svg>