<svg xmlns="http://www.w3.org/2000/svg" xmlns:svg="http://www.w3.org/2000/svg" xmlns:xlink="http://www.w3.org/1999/xlink" id="svg1" width="60" height="60" x="0" y="0" _SVGFile__filename="oldscale/actions/filter.svg" version="1.0"><defs id="defs3"><linearGradient id="linearGradient900"><stop id="stop901" offset="0" style="stop-color:#000;stop-opacity:1"/><stop id="stop902" offset="1" style="stop-color:#fff;stop-opacity:1"/></linearGradient><linearGradient id="linearGradient903" xlink:href="#linearGradient900"/><linearGradient id="linearGradient904" xlink:href="#linearGradient900"/><linearGradient id="linearGradient905" xlink:href="#linearGradient900"/><linearGradient id="linearGradient906" xlink:href="#linearGradient900"/><linearGradient id="linearGradient907" xlink:href="#linearGradient900"/></defs><path id="path1100" d="M 30.000000,4.6875000 C 17.287372,4.6875000 6.9687480,7.3892456 6.9687500,10.718750 L 6.9687500,11.375000 L 27.093750,31.968750 L 27.093750,55.312500 L 32.500000,55.312500 L 32.500000,32.093750 L 53.031250,11.375000 C 53.031250,11.375000 53.031250,10.942575 53.031250,10.718750 C 53.031250,7.3892458 42.712650,4.6875002 30.000000,4.6875000 z" style="font-size:12;fill:none;fill-opacity:1;fill-rule:evenodd;stroke:#fff;stroke-width:8.125;stroke-linecap:round;stroke-linejoin:round;stroke-miterlimit:4;stroke-opacity:1"/><path id="path685" d="M 26.573460,56.546980 L 26.573460,32.487880 L 5.8379960,11.274010 L 53.311310,11.274010 L 32.166590,32.623040 L 32.166590,56.563370 L 26.573460,56.546980 z" transform="matrix(0.970113,0.000000,0.000000,0.970113,1.309245,0.441778)" style="fill:#d9dddf;fill-opacity:1;fill-rule:evenodd;stroke:#000;stroke-width:3.222142;stroke-linecap:round;stroke-linejoin:round;stroke-opacity:1;font-size:12"/><path id="path686" d="M 51.405340,10.885000 C 51.405340,13.273050 41.828680,15.211190 30.028860,15.211190 C 18.229050,15.211190 8.6523840,13.273050 8.6523840,10.885000 C 8.6523840,8.4969390 18.229050,6.5588060 30.028860,6.5588060 C 41.828680,6.5588060 51.405340,8.4969390 51.405340,10.885000 z" transform="matrix(1.077359,0.000000,0.000000,1.394229,-2.351864,-4.459537)" style="fill:#d9dddf;fill-opacity:1;fill-rule:evenodd;stroke:#000;stroke-width:2.5497794;stroke-linejoin:round;stroke-opacity:1;font-size:12"/><path id="path687" d="M 43.726840,10.964750 C 43.726840,11.809060 37.358200,12.494290 29.511120,12.494290 C 21.664040,12.494290 15.295400,11.809060 15.295400,10.964750 C 15.295400,10.120450 21.664040,9.4352130 29.511120,9.4352130 C 37.358200,9.4352130 43.726840,10.120450 43.726840,10.964750 z" transform="matrix(1.099052,0.000000,0.000000,1.483701,-2.434248,-5.551779)" style="font-size:12;stroke-opacity:1;stroke-linejoin:round;stroke-linecap:round;stroke-width:1.4683129;stroke:none;fill-rule:evenodd;fill-opacity:1;fill:#9da1a6"/><metadata id="metadata15"><RDF id="RDF16"><Work id="Work17"><title id="title18">Part of the Flat Icon Collection (Thu Aug 26 14:38:01 2004)</title><description id="description20"/><subject id="subject21"><Bag id="Bag22"><li id="li23"/></Bag></subject><publisher id="publisher24"><Agent id="Agent25"><title id="title26"/></Agent></publisher><creator id="creator27"><Agent id="Agent28"><title id="title29">Danny Allen</title></Agent></creator><rights id="rights31"><Agent id="Agent32"><title id="title33">Danny Allen</title></Agent></rights><date id="date35"/><format id="format36">image/svg+xml</format><type id="type38" resource="http://purl.org/dc/dcmitype/StillImage"/><license id="license39" resource="http://creativecommons.org/licenses/LGPL/2.1/"><date id="date40"/></license><language id="language41">en</language></Work></RDF></metadata></svg>