<svg xmlns="http://www.w3.org/2000/svg" xmlns:svg="http://www.w3.org/2000/svg" xmlns:xlink="http://www.w3.org/1999/xlink" id="svg1" width="60" height="60" x="0" y="0" _SVGFile__filename="oldscale/actions/todo.svg" version="1.0"><defs id="defs3"><linearGradient id="linearGradient1160"><stop style="stop-color:#000;stop-opacity:1" id="stop1161" offset="0"/><stop style="stop-color:#fff;stop-opacity:1" id="stop1162" offset="1"/></linearGradient><linearGradient id="linearGradient1163" xlink:href="#linearGradient1160"/></defs><metadata id="metadata18"><RDF id="RDF19"><Work id="Work20"><title id="title21">Part of the Flat Icon Collection (Thu Aug 26 14:38:01 2004)</title><description id="description23"/><subject id="subject24"><Bag id="Bag25"><li id="li26"/></Bag></subject><publisher id="publisher27"><Agent id="Agent28"><title id="title29"/></Agent></publisher><creator id="creator30"><Agent id="Agent31"><title id="title32">Danny Allen</title></Agent></creator><rights id="rights34"><Agent id="Agent35"><title id="title36">Danny Allen</title></Agent></rights><date id="date38"/><format id="format39">image/svg+xml</format><type id="type41" resource="http://purl.org/dc/dcmitype/StillImage"/><license id="license42" resource="http://creativecommons.org/licenses/LGPL/2.1/"><date id="date43"/></license><language id="language44">en</language></Work></RDF></metadata><g id="g2091" transform="matrix(1.814098,0.000000,0.000000,1.814098,-24.35209,-32.24122)"><path style="font-size:12;fill:none;fill-opacity:1;fill-rule:evenodd;stroke:#fff;stroke-width:5.5123835;stroke-linecap:round;stroke-linejoin:round;stroke-miterlimit:4;stroke-opacity:1" id="path2093" d="M 43.398951,34.309735 C 43.398951,41.727514 37.378722,47.747738 29.960947,47.747738 C 22.543168,47.747738 16.522942,41.727514 16.522942,34.309735 C 16.522942,26.891956 22.543168,20.871731 29.960947,20.871731 C 37.378722,20.871731 43.398951,26.891956 43.398951,34.309735 z"/><path style="font-size:12;fill:#babec3;fill-opacity:1;fill-rule:evenodd;stroke:#000;stroke-width:2.7561917;stroke-linecap:round;stroke-linejoin:round;stroke-miterlimit:4;stroke-opacity:1" id="path2095" d="M 43.398951,34.309735 C 43.398951,41.727514 37.378722,47.747738 29.960947,47.747738 C 22.543168,47.747738 16.522942,41.727514 16.522942,34.309735 C 16.522942,26.891956 22.543168,20.871731 29.960947,20.871731 C 37.378722,20.871731 43.398951,26.891956 43.398951,34.309735 z"/><path style="font-size:12;fill:none;fill-opacity:.75;fill-rule:evenodd;stroke:#000;stroke-width:2.7561934;stroke-linecap:round;stroke-linejoin:round;stroke-miterlimit:4;stroke-opacity:1" id="path2097" d="M 29.960954,34.169280 L 29.960954,25.446043"/><path style="font-size:12;fill:none;fill-opacity:.75;fill-rule:evenodd;stroke:#000;stroke-width:2.7561948;stroke-linecap:round;stroke-linejoin:round;stroke-miterlimit:4;stroke-opacity:1" id="path2099" d="M 29.985795,34.463987 L 35.854988,37.852570"/><path style="font-size:12;fill:#000;fill-opacity:1;fill-rule:evenodd;stroke:#000;stroke-width:1.7226185;stroke-linecap:round;stroke-linejoin:round;stroke-opacity:1" id="path2101" d="M 31.178317,34.309727 C 31.178317,34.981719 30.632929,35.527103 29.960936,35.527103 C 29.288944,35.527103 28.743556,34.981719 28.743556,34.309727 C 28.743556,33.637734 29.288944,33.092346 29.960936,33.092346 C 30.632929,33.092346 31.178317,33.637734 31.178317,34.309727 z"/></g></svg>