<svg xmlns="http://www.w3.org/2000/svg" xmlns:svg="http://www.w3.org/2000/svg" id="svg1" width="60" height="60" x="0" y="0" _SVGFile__filename="oldscale/actions/player_record.svg" version="1.0"><metadata id="metadata6"/><path style="color:#000;fill:none;fill-opacity:1;fill-rule:nonzero;stroke:#fff;stroke-width:10;stroke-linecap:round;stroke-linejoin:round;stroke-miterlimit:4;stroke-dashoffset:0;stroke-opacity:1;marker:none;marker-start:none;marker-mid:none;marker-end:none;visibility:visible;display:block;stroke-dasharray:none" id="path1720" d="M 8.0407272,5.6260567 L 51.959272,5.6260567 C 53.298138,5.6260567 54.375995,6.7610941 54.375995,8.1709823 L 54.375995,51.829016 C 54.375995,53.238905 53.298138,54.373943 51.959272,54.373943 L 8.0407272,54.373943 C 6.7018632,54.373943 5.6240050,53.238905 5.6240050,51.829016 L 5.6240050,8.1709823 C 5.6240050,6.7610941 6.7018632,5.6260567 8.0407272,5.6260567 z"/><path style="color:#000;fill:#fff;fill-opacity:1;fill-rule:nonzero;stroke:#000;stroke-width:5.000001;stroke-linecap:round;stroke-linejoin:round;stroke-miterlimit:4;stroke-dashoffset:0;stroke-opacity:1;marker:none;marker-start:none;marker-mid:none;marker-end:none;visibility:visible;display:block" id="path1719" d="M 8.0407272,5.6260567 L 51.959272,5.6260567 C 53.298138,5.6260567 54.375995,6.7610941 54.375995,8.1709823 L 54.375995,51.829016 C 54.375995,53.238905 53.298138,54.373943 51.959272,54.373943 L 8.0407272,54.373943 C 6.7018632,54.373943 5.6240050,53.238905 5.6240050,51.829016 L 5.6240050,8.1709823 C 5.6240050,6.7610941 6.7018632,5.6260567 8.0407272,5.6260567 z"/><g id="g1727" transform="translate(0.000000,-1.326315e-2)"><path style="fill:none;fill-opacity:.75;fill-rule:evenodd;stroke:#000;stroke-width:4.9999957;stroke-linecap:round;stroke-linejoin:round;stroke-miterlimit:4;stroke-opacity:1" id="path1722" d="M 45.000718,45.013262 L 14.999282,45.013262"/><path style="fill:none;fill-opacity:.75;fill-rule:evenodd;stroke:#000;stroke-width:4.9999957;stroke-linecap:round;stroke-linejoin:round;stroke-miterlimit:4;stroke-opacity:1" id="path1723" d="M 45.000718,25.013264 L 14.999282,25.013264"/><path style="fill:none;fill-opacity:.75;fill-rule:evenodd;stroke:#000;stroke-width:4.9999957;stroke-linecap:round;stroke-linejoin:round;stroke-miterlimit:4;stroke-opacity:1" id="path1724" d="M 45.000718,35.013263 L 14.999282,35.013263"/><path style="fill:none;fill-opacity:.75;fill-rule:evenodd;stroke:#000;stroke-width:4.9999957;stroke-linecap:round;stroke-linejoin:round;stroke-miterlimit:4;stroke-opacity:1" id="path1726" d="M 45.000718,15.013264 L 14.999282,15.013264"/></g></svg>