<svg xmlns="http://www.w3.org/2000/svg" xmlns:svg="http://www.w3.org/2000/svg" id="svg2" width="16" height="16" version="1.1" viewBox="0 0 16 16"><metadata id="metadata8"/><path style="color:#000;display:inline;overflow:visible;visibility:visible;fill:#cacaca;fill-opacity:1;fill-rule:nonzero;stroke:#cacaca;stroke-width:.5;stroke-linecap:butt;stroke-linejoin:miter;stroke-miterlimit:4;stroke-dasharray:none;stroke-dashoffset:0;stroke-opacity:1;marker:none;enable-background:accumulate" id="path3359" d="m 11.327766,7.5671573 c 0,1.00812 -0.448278,1.9115391 -1.156373,2.5217997 -0.5828129,0.502286 -0.2745428,3.167929 -2.1713928,3.196706 -1.89685,0.02878 -1.5785706,-2.690429 -2.1598421,-3.186797 C 5.1253904,9.4884984 4.6722339,8.5807481 4.6722339,7.5671573 c 0,-1.8378746 1.4898918,-3.3277663 3.3277663,-3.3277663 1.837875,0 3.3277658,1.4898917 3.3277658,3.3277663 z"/><path style="color:#000;display:inline;overflow:visible;visibility:visible;fill:#cacaca;fill-opacity:1;fill-rule:nonzero;stroke:#cacaca;stroke-width:.50641763;stroke-miterlimit:4;stroke-dasharray:none;stroke-opacity:1;marker:none;enable-background:accumulate" id="rect3361" d="m 6.4101819,11.795869 0,1.220638 c 0,0.688934 0.4751229,1.25647 1.122735,1.445492 0.010538,0.191288 0.2047134,0.353342 0.405432,0.353342 l 0.1247484,0 c 0.2007186,0 0.3948946,-0.162054 0.405432,-0.353342 0.6422114,-0.19217 1.122735,-0.760263 1.122735,-1.445492 l 0,-1.220638"/></svg>