<svg xmlns="http://www.w3.org/2000/svg" xmlns:svg="http://www.w3.org/2000/svg" id="svg4183" width="22" height="22" version="1.1"><metadata id="metadata4188"/><g id="layer1" transform="translate(0,-1030.3622)"><path style="fill:#cacaca;fill-opacity:1;stroke:none" id="rect4085" d="m 11,1049.3622 c -4.431966,0 -8,-3.568 -8,-8 0,-1.4417 0.382871,-2.7893 1.044922,-3.9551 l 0.738281,0.7383 C 4.285829,1039.1083 4,1040.1997 4,1041.3622 c 0,3.878 3.12203,7 7,7 1.162509,0 2.25389,-0.2858 3.216797,-0.7832 l 0.738281,0.7383 c -1.165789,0.662 -2.513364,1.0449 -3.955078,1.0449 z m 6.955078,-4.0449 -0.738281,-0.7383 C 17.714172,1043.6161 18,1042.5247 18,1041.3622 c 0,-3.878 -3.12203,-7 -7,-7 -1.16251,0 -2.25389,0.2858 -3.216797,0.7832 l -0.738281,-0.7383 c 1.165789,-0.662 2.513364,-1.0449 3.955078,-1.0449 4.431966,0 8,3.568 8,8 0,1.4417 -0.382871,2.7893 -1.044922,3.9551 z"/><rect style="color:#000;text-decoration:none;text-decoration-line:none;text-decoration-style:solid;text-decoration-color:#000;clip-rule:nonzero;display:inline;overflow:visible;visibility:visible;opacity:1;isolation:auto;mix-blend-mode:normal;color-interpolation:sRGB;color-interpolation-filters:linearRGB;solid-color:#000;solid-opacity:1;fill:#cacaca;fill-opacity:1;fill-rule:nonzero;stroke:none;stroke-width:1;stroke-linecap:butt;stroke-linejoin:miter;stroke-miterlimit:4;stroke-dasharray:none;stroke-dashoffset:0;stroke-opacity:1;color-rendering:auto;image-rendering:auto;shape-rendering:auto;text-rendering:auto;enable-background:accumulate" id="rect4336" width="1" height="4" x="-726.451" y="737.39" transform="matrix(0.70710678,-0.70710678,0.70710678,0.70710678,0,0)"/><rect style="color:#000;text-decoration:none;text-decoration-line:none;text-decoration-style:solid;text-decoration-color:#000;clip-rule:nonzero;display:inline;overflow:visible;visibility:visible;opacity:1;isolation:auto;mix-blend-mode:normal;color-interpolation:sRGB;color-interpolation-filters:linearRGB;solid-color:#000;solid-opacity:1;fill:#cacaca;fill-opacity:1;fill-rule:nonzero;stroke:none;stroke-width:1;stroke-linecap:butt;stroke-linejoin:miter;stroke-miterlimit:4;stroke-dasharray:none;stroke-dashoffset:0;stroke-opacity:1;color-rendering:auto;image-rendering:auto;shape-rendering:auto;text-rendering:auto;enable-background:accumulate" id="rect4336-5" width="1" height="4" x="-731.695" y="746.88" transform="matrix(0.70710678,-0.70710678,0.70710678,0.70710678,0,0)"/></g></svg>