<svg xmlns="http://www.w3.org/2000/svg" xmlns:svg="http://www.w3.org/2000/svg" id="svg3049" width="22" height="22" version="1.1"><metadata id="metadata3054"/><g id="layer1" transform="translate(-421.71429,-525.79074)"><g id="layer1-4" transform="translate(421.71429,-504.57146)"><g id="layer1-9" transform="matrix(-1,0,0,1,22,0)"><g id="layer1-2" transform="matrix(-1,0,0,1,22,0)"><path id="path4174" d="m 3,1033.3622 0,1 16,0 0,-1 z m 0,2 0,1 9,0 0,-1 z m 0,4 0,1 16,0 0,-1 z m 0,2 0,1 10,0 0,-1 z m 0,4 0,1 16,0 0,-1 z m 0,2 0,1 13,0 0,-1 z m 14,1 0,1 2,0 0,-1 z" style="opacity:1;fill:#cacaca;fill-opacity:1;stroke:none"/></g></g></g></g></svg>