<svg xmlns="http://www.w3.org/2000/svg" xmlns:svg="http://www.w3.org/2000/svg" id="svg3815" width="22" height="22" version="1.1"><metadata id="metadata3820"/><g id="layer1" transform="translate(-461.71429,-525.79075)"><path style="opacity:1;fill:#cacaca;fill-opacity:1;stroke:none" id="rect3381" d="M 7 3 L 7 5 L 5 5 L 4 5 L 4 19 L 5 19 L 18 19 L 18 18 L 18 5 L 17 5 L 15 5 L 15 3 L 7 3 z M 5 6 L 6 6 L 6 8 L 16 8 L 16 6 L 17 6 L 17 18 L 5 18 L 5 6 z M 7 9 L 7 10 L 15 10 L 15 9 L 7 9 z M 7 12 L 7 13 L 13 13 L 13 12 L 7 12 z M 7 15 L 7 16 L 10 16 L 10 15 L 7 15 z" transform="translate(461.71429,525.79075)"/></g></svg>