<svg xmlns="http://www.w3.org/2000/svg" xmlns:svg="http://www.w3.org/2000/svg" id="svg2" width="32" height="32" version="1.1" viewBox="0 0 32 32"><defs id="defs4"><filter style="color-interpolation-filters:sRGB" id="filter6067"><feFlood id="feFlood6069" flood-color="#000" flood-opacity=".502" result="flood"/><feComposite id="feComposite6071" in="flood" in2="SourceGraphic" operator="in" result="composite1"/><feGaussianBlur id="feGaussianBlur6073" in="composite1" result="blur" stdDeviation="0"/><feOffset id="feOffset6075" dx="0" dy="-2" result="offset"/><feComposite id="feComposite6077" in="SourceGraphic" in2="offset" operator="over" result="composite2"/></filter><filter style="color-interpolation-filters:sRGB" id="filter6079"><feFlood id="feFlood6081" flood-color="#000" flood-opacity=".502" result="flood"/><feComposite id="feComposite6083" in="flood" in2="SourceGraphic" operator="in" result="composite1"/><feGaussianBlur id="feGaussianBlur6085" in="composite1" result="blur" stdDeviation="0"/><feOffset id="feOffset6087" dx="0" dy="-2" result="offset"/><feComposite id="feComposite6089" in="SourceGraphic" in2="offset" operator="over" result="composite2"/></filter></defs><metadata id="metadata7"/><g id="layer3" style="display:inline"><path style="display:inline;opacity:1;fill:#cacaca;fill-opacity:1;stroke:none;stroke-width:4;stroke-linecap:butt;stroke-linejoin:bevel;stroke-miterlimit:4;stroke-dasharray:none;stroke-dashoffset:1;stroke-opacity:1" id="rect4148-4" d="m 4,8 -4,0 0,20 0,4 24,0 0,-4 -20,0 z"/><path style="opacity:1;fill:#cacaca;fill-opacity:1;stroke:none;stroke-width:4;stroke-linecap:butt;stroke-linejoin:miter;stroke-miterlimit:4;stroke-dasharray:none;stroke-dashoffset:1;stroke-opacity:1" id="rect4148" d="M 8,0 8,24 32,24 32,0 8,0 Z m 4,4 16,0 0,16 -16,0 0,-16 z"/></g><g style="display:none" id="g4153"><path style="display:inline;opacity:1;fill:#cacaca;fill-opacity:1;stroke:none;stroke-width:4;stroke-linecap:butt;stroke-linejoin:bevel;stroke-miterlimit:4;stroke-dasharray:none;stroke-dashoffset:1;stroke-opacity:1" id="path4155" d="m 0,8 0,20 0,2 2,0 0,2 22,0 0,-4 L 4,28 4,8 0,8 Z"/><path style="opacity:1;fill:#cacaca;fill-opacity:1;stroke:none;stroke-width:4;stroke-linecap:butt;stroke-linejoin:miter;stroke-miterlimit:4;stroke-dasharray:none;stroke-dashoffset:1;stroke-opacity:1" id="path4157" d="m 10,0 0,2 -2,0 0,20 2,0 0,2 20,0 0,-2 2,0 0,-20 -2,0 0,-2 -20,0 z m 2,4 16,0 0,16 -16,0 0,-16 z"/></g></svg>