<svg xmlns="http://www.w3.org/2000/svg" xmlns:svg="http://www.w3.org/2000/svg" id="svg2" width="32" height="32" version="1.1" viewBox="0 0 32 32"><defs id="defs4"><filter style="color-interpolation-filters:sRGB" id="filter4280"><feFlood id="feFlood4282" flood-color="#000" flood-opacity=".498" result="flood"/><feComposite id="feComposite4284" in="flood" in2="SourceGraphic" operator="in" result="composite1"/><feGaussianBlur id="feGaussianBlur4286" in="composite1" result="blur" stdDeviation="0"/><feOffset id="feOffset4288" dx="0" dy="-2" result="offset"/><feComposite id="feComposite4290" in="SourceGraphic" in2="offset" operator="over" result="composite2"/></filter><filter style="color-interpolation-filters:sRGB" id="filter5596"><feFlood id="feFlood5598" flood-color="#000" flood-opacity=".502" result="flood"/><feComposite id="feComposite5600" in="flood" in2="SourceGraphic" operator="in" result="composite1"/><feGaussianBlur id="feGaussianBlur5602" in="composite1" result="blur" stdDeviation="0"/><feOffset id="feOffset5604" dx="0" dy="-2" result="offset"/><feComposite id="feComposite5606" in="SourceGraphic" in2="offset" operator="over" result="composite2"/></filter><filter style="color-interpolation-filters:sRGB" id="filter5596-3"><feFlood id="feFlood5598-7" flood-color="#000" flood-opacity=".502" result="flood"/><feComposite id="feComposite5600-7" in="flood" in2="SourceGraphic" operator="in" result="composite1"/><feGaussianBlur id="feGaussianBlur5602-6" in="composite1" result="blur" stdDeviation="0"/><feOffset id="feOffset5604-2" dx="0" dy="-2" result="offset"/><feComposite id="feComposite5606-3" in="SourceGraphic" in2="offset" operator="over" result="composite2"/></filter></defs><metadata id="metadata7"/><g id="layer3" style="display:none"><path style="opacity:1;fill:#cacaca;fill-opacity:1;stroke:none;stroke-width:4;stroke-linecap:butt;stroke-linejoin:bevel;stroke-miterlimit:4;stroke-dasharray:none;stroke-dashoffset:1;stroke-opacity:1" id="rect4159" d="m 14,2 0,2 -2,0 0,2 -10,0 0,2 -2,0 0,20 2,0 0,2 28,0 0,-2 2,0 0,-24 -2,0 0,-2 z"/><path style="fill:#777;fill-opacity:1;fill-rule:evenodd;stroke:none;stroke-width:1px;stroke-linecap:butt;stroke-linejoin:miter;stroke-opacity:1" id="path4168" d="m 16,10 0,2 0,2 -8,0 0,8 8,0 0,4 2,0 0,-2 2,0 0,-2 2,0 0,-2 2,0 0,-2 0,-2 -2,0 0,-2 -2,0 0,-2 -2,0 0,-2 -2,0 z"/></g><g style="display:none;opacity:.42300002" id="g4214"><path style="opacity:1;fill:#cacaca;fill-opacity:1;stroke:none;stroke-width:4;stroke-linecap:butt;stroke-linejoin:bevel;stroke-miterlimit:4;stroke-dasharray:none;stroke-dashoffset:1;stroke-opacity:1" id="path4220" d="m 14,2 0,2 -2,0 0,2 -12,0 0,2 0,0 0,20 0,0 0,2 32,0 0,-2 0,0 L 32,7.1874989 32,5.8749988 32,4 30,4 30,2 Z m 2,8 2,0 0,2 2,0 0,2 2,0 0,2 2,0 0,2 0,2 -2,0 0,2 -2,0 0,2 -2,0 0,2 -2,0 0,-4 -8,0 0,-8 8,0 0,-2 z"/></g><g id="layer1" style="display:inline"><path style="fill:#cacaca;fill-opacity:1;fill-rule:evenodd;stroke:none;stroke-width:1px;stroke-linecap:butt;stroke-linejoin:miter;stroke-opacity:1" id="rect4161" d="m 0,3.9999995 28,0 0,4 -28,0 z"/><path style="fill:#cacaca;fill-opacity:1;fill-rule:evenodd;stroke:none;stroke-width:1px;stroke-linecap:butt;stroke-linejoin:miter;stroke-opacity:1" id="rect4161-8" d="m 12,-1e-7 18,0 0,4 -18,0 z"/><path style="fill:#cacaca;fill-opacity:1;fill-rule:evenodd;stroke:none;stroke-width:1px;stroke-linecap:butt;stroke-linejoin:miter;stroke-opacity:1" id="rect4161-4" d="m 0,28 32,0 0,4 -32,0 z"/><path style="fill:#cacaca;fill-opacity:1;fill-rule:evenodd;stroke:none;stroke-width:1px;stroke-linecap:butt;stroke-linejoin:miter;stroke-opacity:1" id="rect4161-80" d="m 28,4 4,0 0,24 -4,0 z"/><path style="fill:#cacaca;fill-opacity:1;fill-rule:evenodd;stroke:none;stroke-width:1px;stroke-linecap:butt;stroke-linejoin:miter;stroke-opacity:1" id="rect4161-80-4" d="m 0,3.9999999 4,0 L 4,12 0,12 Z"/><path style="fill:#cacaca;fill-opacity:1;fill-rule:evenodd;stroke:none;stroke-width:1px;stroke-linecap:butt;stroke-linejoin:miter;stroke-opacity:1" id="rect4161-80-4-0" d="m 0,24 4,0 0,8 -4,0 z"/><rect style="fill:#cacaca;fill-opacity:1;stroke:none" id="rect4230" width="2" height="2" x="10" y="2"/><rect style="display:inline;fill:#cacaca;fill-opacity:1;stroke:none" id="rect4230-4" width="2" height="2" x="30" y="2"/><path style="fill:#cacaca;fill-opacity:1;stroke:none" id="rect4249" d="m 14,12 0,4 -6,0 0,4 6,0 0,4 2,0 0,-2 2,0 0,-2 2,0 0,-4 -2,0 0,-2 -2,0 0,-2 z"/></g></svg>