<svg xmlns="http://www.w3.org/2000/svg" xmlns:svg="http://www.w3.org/2000/svg" id="svg4105" width="22" height="22" version="1.1"><metadata id="metadata4110"/><g id="layer1" transform="translate(0,-1030.3622)"><path style="opacity:1;fill:#cacaca;fill-opacity:1;stroke:none" id="rect4164" d="M 11 3 L 10.292969 3.7070312 L 3 11 L 3.7070312 11.707031 L 4 11.414062 L 4 19 L 5 19 L 10 19 L 13 19 L 18 19 L 18 18 L 18 11.414062 L 18.292969 11.707031 L 19 11 L 16 8 L 16 5 L 13 5 L 11.707031 3.7070312 L 11 3 z M 11 4.4140625 L 17 10.414062 L 17 18 L 13 18 L 13 13 L 10 13 L 9 13 L 9 18 L 5 18 L 5 10.414062 L 11 4.4140625 z" transform="translate(0,1030.3622)"/></g></svg>