<svg xmlns="http://www.w3.org/2000/svg" xmlns:svg="http://www.w3.org/2000/svg" id="svg6190" width="22" height="22" version="1.1"><metadata id="metadata6196"/><g id="g6460"><path style="color:#000;fill:#cacaca;fill-opacity:1;fill-rule:nonzero;stroke:none;stroke-width:1;marker:none;visibility:visible;display:inline;overflow:visible;enable-background:accumulate" id="path6416" d="M 1 7 L 1 9 L 1 18 L 3 18 L 17 18 L 17 16 L 17 14 L 16 14 L 16 15 L 15 15 L 15 14 L 14 14 L 14 16 L 4 16 L 4 9 L 5 9 L 5 7 L 3 7 L 1 7 z M 2 8 L 3 8 L 3 9 L 2 9 L 2 8 z M 2 10 L 3 10 L 3 11 L 2 11 L 2 10 z M 2 12 L 3 12 L 3 13 L 2 13 L 2 12 z M 2 14 L 3 14 L 3 15 L 2 15 L 2 14 z M 2 16 L 3 16 L 3 17 L 2 17 L 2 16 z M 14.96875 16 L 15.96875 16 L 15.96875 17 L 14.96875 17 L 14.96875 16 z"/><path style="color:#000;fill:#cacaca;fill-opacity:1;fill-rule:nonzero;stroke:none;stroke-width:1;marker:none;visibility:visible;display:inline;overflow:visible;enable-background:accumulate" id="rect6143" d="M 5 3 L 5 5 L 5 14 L 7 14 L 21 14 L 21 12 L 21 5 L 21 3 L 19 3 L 7 3 L 5 3 z M 6 4 L 7 4 L 7 5 L 6 5 L 6 4 z M 18.96875 4 L 19.96875 4 L 19.96875 5 L 18.96875 5 L 18.96875 4 z M 8 5 L 18 5 L 18 12 L 8 12 L 8 5 z M 6 6 L 7 6 L 7 7 L 6 7 L 6 6 z M 18.96875 6 L 19.96875 6 L 19.96875 7 L 18.96875 7 L 18.96875 6 z M 6 8 L 7 8 L 7 9 L 6 9 L 6 8 z M 18.96875 8 L 19.96875 8 L 19.96875 9 L 18.96875 9 L 18.96875 8 z M 6 10 L 7 10 L 7 11 L 6 11 L 6 10 z M 18.96875 10 L 19.96875 10 L 19.96875 11 L 18.96875 11 L 18.96875 10 z M 6 12 L 7 12 L 7 13 L 6 13 L 6 12 z M 18.96875 12 L 19.96875 12 L 19.96875 13 L 18.96875 13 L 18.96875 12 z"/></g></svg>