<svg xmlns="http://www.w3.org/2000/svg" xmlns:svg="http://www.w3.org/2000/svg" id="svg3404" width="22" height="22" version="1.1"><metadata id="metadata3409"/><g id="layer1" transform="translate(-384.57143,-482.93361)"><path style="opacity:1;fill:#cacaca;fill-opacity:1;stroke:none" id="rect4145" d="M 5 3 L 5 4 L 5 8 L 3 8 L 3 9 L 3 16 L 4 16 L 7 16 L 7 18 L 7 19 L 15 19 L 15 18 L 15 16 L 19 16 L 19 15 L 19 9 L 19 8 L 17 8 L 17 4 L 17 3 L 5 3 z M 6 4 L 16 4 L 16 8 L 15 8 L 15 7 L 7 7 L 7 8 L 6 8 L 6 4 z M 7 5 L 7 6 L 15 6 L 15 5 L 7 5 z M 4 9 L 18 9 L 18 15 L 16 15 L 16 13 L 6 13 L 6 15 L 4 15 L 4 9 z M 14 10 L 14 11 L 17 11 L 17 10 L 14 10 z M 8 16 L 14 16 L 14 18 L 8 18 L 8 16 z" transform="translate(384.57143,482.93361)"/></g></svg>