<svg xmlns="http://www.w3.org/2000/svg" xmlns:svg="http://www.w3.org/2000/svg" id="svg2" width="32" height="32" version="1.1" viewBox="0 0 32 32"><defs id="defs4"><filter style="color-interpolation-filters:sRGB" id="filter5026"><feFlood id="feFlood5028" flood-color="#000" flood-opacity=".502" result="flood"/><feComposite id="feComposite5030" in="flood" in2="SourceGraphic" operator="in" result="composite1"/><feGaussianBlur id="feGaussianBlur5032" in="composite1" result="blur" stdDeviation="0"/><feOffset id="feOffset5034" dx="0" dy="-2" result="offset"/><feComposite id="feComposite5036" in="SourceGraphic" in2="offset" operator="over" result="composite2"/></filter><filter style="color-interpolation-filters:sRGB" id="filter6180"><feFlood id="feFlood6182" flood-color="#000" flood-opacity=".502" result="flood"/><feComposite id="feComposite6184" in="flood" in2="SourceGraphic" operator="in" result="composite1"/><feGaussianBlur id="feGaussianBlur6186" in="composite1" result="blur" stdDeviation="0"/><feOffset id="feOffset6188" dx="0" dy="-2" result="offset"/><feComposite id="feComposite6190" in="SourceGraphic" in2="offset" operator="over" result="composite2"/></filter><filter style="color-interpolation-filters:sRGB" id="filter7302"><feFlood id="feFlood7304" flood-color="#000" flood-opacity=".502" result="flood"/><feComposite id="feComposite7306" in="flood" in2="SourceGraphic" operator="in" result="composite1"/><feGaussianBlur id="feGaussianBlur7308" in="composite1" result="blur" stdDeviation="0"/><feOffset id="feOffset7310" dx="0" dy="2" result="offset"/><feComposite id="feComposite7312" in="SourceGraphic" in2="offset" operator="over" result="composite2"/></filter><filter style="color-interpolation-filters:sRGB" id="filter7350"><feFlood id="feFlood7352" flood-color="#000" flood-opacity=".502" result="flood"/><feComposite id="feComposite7354" in="flood" in2="SourceGraphic" operator="in" result="composite1"/><feGaussianBlur id="feGaussianBlur7356" in="composite1" result="blur" stdDeviation="0"/><feOffset id="feOffset7358" dx="0" dy="-2" result="offset"/><feComposite id="feComposite7360" in="SourceGraphic" in2="offset" operator="over" result="composite2"/></filter></defs><metadata id="metadata7"/><g id="layer1"><path style="opacity:1;fill:#cacaca;fill-opacity:1;stroke:none;stroke-width:4;stroke-linecap:butt;stroke-linejoin:miter;stroke-miterlimit:4;stroke-dasharray:none;stroke-dashoffset:1;stroke-opacity:1" id="rect4159" d="m 0,8 0,2 0,2 2,0 0,2 2,0 0,2 2,0 0,2 2,0 0,2 2,0 0,2 2,0 0,2 2,0 0,2 4,0 0,-2 2,0 0,-2 2,0 0,-2 2,0 0,-2 2,0 0,-2 2,0 0,-2 2,0 0,-2 2,0 0,-2 0,-2 -4,0 0,2 -2,0 0,2 -2,0 0,2 -2,0 0,2 -2,0 0,2 -2,0 0,2 -2,0 -2,0 0,-2 -2,0 0,-2 -2,0 0,-2 -2,0 0,-2 -2,0 0,-2 -2,0 0,-2 -4,0 z"/></g></svg>