<svg xmlns="http://www.w3.org/2000/svg" xmlns:svg="http://www.w3.org/2000/svg" id="svg2" width="32" height="32" version="1.1" viewBox="0 0 32 32"><defs id="defs4"><filter style="color-interpolation-filters:sRGB" id="filter4429"><feFlood id="feFlood4431" flood-color="#000" flood-opacity=".502" result="flood"/><feComposite id="feComposite4433" in="flood" in2="SourceGraphic" operator="in" result="composite1"/><feGaussianBlur id="feGaussianBlur4435" in="composite1" result="blur" stdDeviation="0"/><feOffset id="feOffset4437" dx="0" dy="-2" result="offset"/><feComposite id="feComposite4439" in="SourceGraphic" in2="offset" operator="over" result="composite2"/></filter></defs><metadata id="metadata7"/><g id="layer3" style="display:inline"><rect style="opacity:1;fill:none;fill-opacity:1;stroke:#cacaca;stroke-width:2;stroke-linecap:butt;stroke-linejoin:miter;stroke-miterlimit:4;stroke-dasharray:none;stroke-dashoffset:1;stroke-opacity:1" id="rect4142" width="28" height="28" x="2" y="2" rx="0" ry="0"/><path style="fill:none;fill-opacity:1;stroke:#cacaca;stroke-width:1.50504243;stroke-miterlimit:4;stroke-dasharray:none;stroke-opacity:1" id="path832" d="M 15.4375,15.999999 V 1.7454643 h 0.561059 0.561059 V 15.999999 30.254534 H 15.998559 15.4375 Z"/><path style="display:inline;fill:none;fill-opacity:1;stroke:#cacaca;stroke-width:1.50504243;stroke-miterlimit:4;stroke-dasharray:none;stroke-opacity:1" id="path832-3" d="m 16,15.374999 h 14.254535 v 0.561059 0.561059 H 16 1.745465 v -0.561059 -0.561059 z"/></g><g style="display:none" id="g4142"><path id="path4144" d="m 14,8 0,6 -6,0 0,4 6,0 0,6 4,0 0,-6 6,0 0,-4 -6,0 0,-6 z" style="opacity:1;fill:#cacaca;fill-opacity:1;stroke:none;stroke-width:4;stroke-linecap:butt;stroke-linejoin:bevel;stroke-miterlimit:4;stroke-dasharray:none;stroke-dashoffset:1;stroke-opacity:1"/><path style="color:#000;font-style:normal;font-variant:normal;font-weight:400;font-stretch:normal;font-size:medium;line-height:normal;font-family:sans-serif;text-indent:0;text-align:start;text-decoration:none;text-decoration-line:none;text-decoration-style:solid;text-decoration-color:#000;letter-spacing:normal;word-spacing:normal;text-transform:none;direction:ltr;block-progression:tb;writing-mode:lr-tb;baseline-shift:baseline;text-anchor:start;white-space:normal;clip-rule:nonzero;display:inline;overflow:visible;visibility:visible;opacity:1;isolation:auto;mix-blend-mode:normal;color-interpolation:sRGB;color-interpolation-filters:linearRGB;solid-color:#000;solid-opacity:1;fill:#cacaca;fill-opacity:1;fill-rule:nonzero;stroke:none;stroke-width:4;stroke-linecap:butt;stroke-linejoin:miter;stroke-miterlimit:4;stroke-dasharray:none;stroke-dashoffset:1;stroke-opacity:1;color-rendering:auto;image-rendering:auto;shape-rendering:auto;text-rendering:auto;enable-background:accumulate" id="rect4146" d="m 2,0 0,2 -2,0 0,28 2,0 0,2 2,0 24,0 2,0 0,-2 2,0 L 32,2 30,2 30,0 2,0 Z M 4,4 28,4 28,28 4,28 4,4 Z"/></g></svg>