<svg xmlns="http://www.w3.org/2000/svg" xmlns:svg="http://www.w3.org/2000/svg" id="svg3760" width="22" height="22" version="1.1"><metadata id="metadata3765"/><g id="layer1" transform="translate(-551.28571,-607.64788)"><path style="opacity:1;fill:#cacaca;fill-opacity:1;stroke:none" id="rect4138" d="M 3 3 L 3 7 L 3 18 L 3 19 L 13 19 L 13 18 L 4 18 L 4 7 L 18 7 L 18 13 L 19 13 L 19 7 L 19 3 L 3 3 z M 16 14 L 16 16 L 14 16 L 14 17 L 16 17 L 16 19 L 17 19 L 17 17 L 19 17 L 19 16 L 17 16 L 17 14 L 16 14 z" transform="translate(551.28571,607.64788)"/></g></svg>