<svg xmlns="http://www.w3.org/2000/svg" xmlns:svg="http://www.w3.org/2000/svg" id="svg3979" width="22" height="22" version="1.1"><metadata id="metadata3984"/><g id="layer1" transform="translate(-601.71428,-517.21933)"><path style="opacity:1;fill:#cacaca;fill-opacity:1;stroke:none" id="rect4147" d="M 4 3 L 4 4 L 4 17 L 5 17 L 7 17 L 8 17 L 8 18 L 8 19 L 14 19 L 18 15 L 18 14 L 18 7 L 18 6 L 16 6 L 16 3 L 15 3 L 5 3 L 4 3 z M 5 4 L 15 4 L 15 6 L 8 6 L 8 7 L 8 16 L 7 16 L 5 16 L 5 4 z M 9 7 L 17 7 L 17 14 L 14 14 L 13 14 L 13 15 L 13 18 L 9 18 L 9 7 z" transform="translate(601.71428,517.21933)"/></g></svg>