<svg xmlns="http://www.w3.org/2000/svg" xmlns:svg="http://www.w3.org/2000/svg" id="svg4355" width="22" height="22" version="1.1"><metadata id="metadata4360"/><g id="layer1" transform="translate(-544.57141,-742.93359)"><g id="layer1-5" transform="translate(544.57141,-287.42861)"><path id="rect3081" d="M 4,4 4,5 5,5 5,4 4,4 Z m 5,0 0,1 1,0 0,-1 -1,0 z m 5,0 0,1 1,0 0,-1 -1,0 z m 5,0 0,1 1,0 0,-1 -1,0 z M 4,7 4,8 5,8 5,7 4,7 Z m 5,0 0,1 1,0 0,-1 -1,0 z m 5,0 0,1 1,0 0,-1 -1,0 z m 5,0 0,1 1,0 0,-1 -1,0 z m -15,3 0,1 1,0 0,-1 -1,0 z m 5,0 0,1 1,0 0,-1 -1,0 z m 5,0 0,1 1,0 0,-1 -1,0 z m 5,0 0,1 1,0 0,-1 -1,0 z m -15,3 0,1 1,0 0,-1 -1,0 z m 5,0 0,1 1,0 0,-1 -1,0 z m 5,0 0,1 1,0 0,-1 -1,0 z m 5,0 0,1 1,0 0,-1 -1,0 z m -15,3 0,1 1,0 0,-1 -1,0 z m 5,0 0,1 1,0 0,-1 -1,0 z m 5,0 0,1 1,0 0,-1 -1,0 z m 5,0 0,1 1,0 0,-1 -1,0 z m -15,3 0,1 1,0 0,-1 -1,0 z m 5,0 0,1 1,0 0,-1 -1,0 z m 5,0 0,1 1,0 0,-1 -1,0 z m 5,0 0,1 1,0 0,-1 -1,0 z" transform="translate(-1,1029.3622)" style="color:#000;display:inline;overflow:visible;visibility:visible;fill:#cacaca;fill-opacity:1;fill-rule:evenodd;stroke:none;stroke-width:1;marker:none;enable-background:accumulate"/></g></g></svg>