<svg xmlns="http://www.w3.org/2000/svg" xmlns:svg="http://www.w3.org/2000/svg" xmlns:xlink="http://www.w3.org/1999/xlink" id="svg5453" width="32" height="32" version="1.1"><defs id="defs5455"><linearGradient id="linearGradient4327" x1="400.571" x2="400.571" y1="545.798" y2="517.798" gradientUnits="userSpaceOnUse" xlink:href="#linearGradient4143"/><linearGradient id="linearGradient4143"><stop id="stop4145" offset="0" style="stop-color:#197cf1;stop-opacity:1"/><stop id="stop4147" offset="1" style="stop-color:#20bcfa;stop-opacity:1"/></linearGradient><linearGradient id="linearGradient4783" x1="400.571" x2="400.571" y1="545.798" y2="517.798" gradientTransform="matrix(0.42857143,0,0,0.42857143,232.89796,299.88457)" gradientUnits="userSpaceOnUse" xlink:href="#linearGradient4290"/><linearGradient id="linearGradient4227"><stop style="stop-color:#292c2f;stop-opacity:1" id="stop4229" offset="0"/><stop style="stop-color:#000;stop-opacity:0" id="stop4231" offset="1"/></linearGradient><linearGradient id="linearGradient4996" x1="401.571" x2="415.571" y1="516.698" y2="530.698" gradientTransform="translate(-388.57143,-511.798)" gradientUnits="userSpaceOnUse" xlink:href="#linearGradient4227"/><linearGradient id="linearGradient4290"><stop style="stop-color:#7cbaf8;stop-opacity:1" id="stop4292" offset="0"/><stop style="stop-color:#f4fcff;stop-opacity:1" id="stop4294" offset="1"/></linearGradient></defs><metadata id="metadata5458"/><g id="layer1" transform="translate(-384.57143,-515.798)"><path style="opacity:1;fill:url(#linearGradient4327);fill-opacity:1;stroke:none" id="rect4304" d="m 414.57143,517.798 0,21 -7,0 0,7 -7,-7 -14,0 0,-21 28,0 z"/><path style="opacity:.2;fill:url(#linearGradient4996);fill-opacity:1;fill-rule:evenodd;stroke:none;stroke-width:1px;stroke-linecap:butt;stroke-linejoin:miter;stroke-opacity:1" id="path4905" d="M 26.900391 4.9003906 L 25 15.900391 L 22 15.900391 L 19 15.900391 L 13 15.900391 L 22 24.900391 L 23 25.900391 L 23 23 L 30 23 L 30 8 L 27 5 L 26.900391 4.9003906 z" transform="translate(384.57143,515.798)"/><path style="opacity:1;fill:url(#linearGradient4783);fill-opacity:1;stroke:none" id="path4781" d="m 411.57143,520.798 0,10.9 -5,0 0,3 -3,-3 -6,0 0,-10.9 z"/></g></svg>